# xmcd CD database file
#
# Track frame offsets:
#	150
#	14659
#	38604
#	62846
#	81690
#	102737
#	122169
#	144151
#	165303
#	183383
#	204395
#
# Disc length: 3006 seconds
#
# Revision: 0
# Processed by: cddbd v1.5.1PL0 Copyright (c) Steve Scherf et al.
# Submitted via: CDex 1.51
#
DISCID=980bbc0b
DTITLE=BREATH - ハート・オブ・マイン
DYEAR=2003
DGENRE=J-POP
TTITLE0=Mary Jane
TTITLE1=瞳にくぎづけ
TTITLE2=Warmness
TTITLE3=アイ・ラブ・ユー
TTITLE4=Fall in Love
TTITLE5=甘いキッス
TTITLE6=Bridge
TTITLE7=渚に消えた恋
TTITLE8=今もし君の心に僕がいなくても
TTITLE9=spin
TTITLE10=重ねてく世界
EXTD=YEAR: 2003
EXTT0=
EXTT1=
EXTT2=
EXTT3=
EXTT4=
EXTT5=
EXTT6=
EXTT7=
EXTT8=
EXTT9=
EXTT10=
PLAYORDER=
